<?xml version="1.0" standalone="no"?>
<!DOCTYPE svg PUBLIC "-//W3C//DTD SVG 1.1//EN" "http://www.w3.org/Graphics/SVG/1.1/DTD/svg11.dtd" >
<!--
2013-9-30: Created.
-->
<svg>
<metadata>
Created by iconfont
</metadata>
<defs>

<font id="iconfont" horiz-adv-x="1024" >
  <font-face
    font-family="iconfont"
    font-weight="500"
    font-stretch="normal"
    units-per-em="1024"
    ascent="896"
    descent="-128"
  />
    <missing-glyph />
    
    <glyph glyph-name="shouji" unicode="&#58921;" d="M511.292384-146.481797c-246.705821 0-446.708971 200.001103-446.708971 446.707948S264.586562 746.936145 511.292384 746.936145c246.704798 0 446.708971-200.00315 446.708971-446.709995S757.997182-146.481797 511.292384-146.481797zM712.298374 496.983373c0 9.853415-2.260483 19.092847-6.623861 27.66406-4.310166 8.634658-10.264784 16.256242-17.962094 22.658046-7.671727 6.556323-16.680914 11.624758-26.867928 15.268752-10.340509 3.731998-21.427008 5.67014-33.177634 5.67014L394.918933 568.24437c-11.82942 0-22.838148-1.938142-33.178657-5.67014-10.188037-3.645017-19.194154-8.712429-26.866904-15.268752-7.698333-6.401804-13.676487-14.023388-18.014282-22.658046-4.363378-8.571213-6.568602-17.809621-6.568602-27.66406l0-394.129452c0-9.751085 2.205225-19.000749 6.568602-27.351951 4.337795-8.483208 10.314926-15.873526 18.014282-22.443152 7.673773-6.402827 16.679891-11.470239 26.866904-15.254425 10.340509-3.734044 21.350261-5.594415 33.178657-5.594415l232.748948 0c11.749602 0 22.836101 1.859347 33.177634 5.594415 10.187013 3.784186 19.196201 8.851599 26.867928 15.254425 7.696286 6.569626 13.651928 13.959943 17.962094 22.443152 4.363378 8.351202 6.623861 17.600867 6.623861 27.351951l0 0L712.299397 496.983373zM362.688881 468.820963l296.437479 0 0-337.109808L362.688881 131.711156 362.688881 468.820963zM552.863175 508.774931l-83.21833 0c-2.592035 0-5.02955 0.87288-7.160073 2.667759-2.282996 1.795902-3.412726 4.261047-3.412726 7.378038 0 3.143597 1.283226 5.593392 3.645017 7.313569 2.409886 1.783623 4.722558 2.604314 6.927783 2.604314l83.21833 0c2.668783 0 5.02955-0.821715 7.261381-2.604314 2.25946-1.720178 3.311419-4.169973 3.311419-7.313569 0-3.116991-1.051959-5.582135-3.311419-7.378038C557.892725 509.647811 555.532981 508.774931 552.863175 508.774931zM511.009951 115.222623c9.598612 0 17.655102-3.051499 24.223704-8.865925 6.570649-5.889127 9.803273-13.18837 9.803273-21.759583 0-8.263198-3.232624-15.423271-9.803273-21.466917-6.568602-6.031367-14.625092-9.083889-24.223704-9.083889-9.236362 0-17.216103 3.052522-24.016996 9.083889-6.725168 6.042623-10.111289 13.202697-10.111289 21.466917 0 8.571213 3.38612 15.870456 10.111289 21.759583C493.793848 112.170101 501.77359 115.222623 511.009951 115.222623z"  horiz-adv-x="1024" />

    
    <glyph glyph-name="1" unicode="&#58882;" d="M431.762049 165.310392l-12.467963-50.895157 174.524872 0-12.471033 50.895157L431.762049 165.310392zM653.646556 534.302327 359.465466 534.302327c-15.22168 0-27.434839-12.468986-27.434839-27.999704l0-198.478424c0-15.531741 12.213159-28.000728 27.434839-28.000728l294.181089 0c15.22168 0 27.434839 12.468986 27.434839 28.000728L681.081395 506.302623C681.080372 521.833341 668.868235 534.302327 653.646556 534.302327zM506.555499 747.327048c-247.423159 0-447.996291-200.592574-447.996291-447.997314s200.573131-447.996291 447.996291-447.996291c247.423159 0 447.998337 200.591551 447.998337 447.996291S753.978658 747.327048 506.555499 747.327048zM805.730323 88.965609c0-28.109198-22.312168-50.894134-49.855478-50.894134L257.236154 38.071476c-27.562752 0-49.873897 22.785959-49.873897 50.894134l0 25.448602 62.343907 127.237893L269.706163 547.061932c0 28.109198 22.311145 50.89618 49.856501 50.89618l373.969297 0c27.561729 0 49.874921-22.786982 49.874921-50.89618l0-305.409828 62.323441-127.237893L805.730323 88.965609z"  horiz-adv-x="1024" />

    
    <glyph glyph-name="4" unicode="&#58887;" d="M957.828928 304.381797c0-246.819408-200.087061-446.906469-446.906469-446.906469S64.015989 57.562389 64.015989 304.381797 264.102027 751.288267 510.922459 751.288267 957.828928 551.201206 957.828928 304.381797zM528.405645 5.33284l0 94.580099 6.658653 0.541329c14.013155 1.140986 28.14092 3.360538 41.993416 6.596232 16.134469 4.865821 33.80492 10.447956 42.158169 13.411451l5.571902 2.464121c74.026994 32.729425 120.010281 94.423533 120.010281 161.004951 0 6.730285-8.006348 12.416797-17.483186 12.416797-12.825097 0-25.951045-0.880043-39.017642-2.616594l-24.308639-3.227508 18.648732 15.922644c40.086997 34.227546 62.160735 78.609359 62.160735 124.969223 0 6.727215-8.006348 12.411681-17.483186 12.411681-51.246151 0-99.95348-12.918217-140.858098-37.357839l-20.795629-12.423961 10.555403 21.803585c32.759101 67.657936 12.223393 144.525628-52.316529 195.828061-3.348258 2.661619-8.079002 4.186346-12.979616 4.186346-4.898567 0-9.631358-1.52575-12.979616-4.185322-43.774993-34.806737-67.88511-80.933287-67.88511-129.884163 0-22.639626 5.173836-44.795229 15.378246-65.849754l10.561543-21.789259-20.794605 12.405541c-40.86471 24.379247-89.506547 37.266765-140.670833 37.266765-9.476839 0-17.48421-5.684466-17.48421-12.411681 0-46.361911 22.076808-90.74577 62.162782-124.975363l18.666128-15.940041-24.331151 3.246951c-13.036921 1.738597-26.163893 2.62171-39.014572 2.62171-9.476839 0-17.48421-5.685489-17.48421-12.416797 0-66.582441 45.985334-128.275525 120.011304-161.004951l5.568832-2.464121c8.352225-2.960425 26.0237-8.543583 42.160215-13.408381 13.858636-3.237741 27.986401-5.457292 41.996486-6.598278l6.658653-0.541329 0-94.580099c0-6.728238 8.006348-12.412704 17.483186-12.412704C520.399297-7.079864 528.405645-1.394375 528.405645 5.33284zM312.292586 271.077274l9.601682-1.063215c87.559195-9.691733 157.300582-65.513086 169.600723-135.747707l1.667989-9.516748-9.601682 1.063215c-87.561241 9.691733-157.303652 65.513086-169.601746 135.747707L312.292586 271.077274zM709.553355 271.077274l-1.664919-9.516748c-12.295024-70.234621-82.038458-126.056997-169.600723-135.747707l-9.598612-1.063215 1.664919 9.516748c12.298094 70.234621 82.038458 126.056997 169.600723 135.747707L709.553355 271.077274zM447.612551 252.812281l24.337291-3.258207c12.971429-1.737574 26.084075-2.616594 39.130206-2.616594 12.882402 0.010233 25.954115 0.8913 38.85289 2.616594l24.360827 3.258207-18.696828-15.95232c-15.535835-13.256932-28.487821-28.158317-38.496779-44.290739l-6.161327-9.92914-6.15621 9.92914c-9.969049 16.080234-22.923082 30.981618-38.503942 44.292785L447.612551 252.812281zM312.292586 418.534673l9.601682-1.062192c87.559195-9.69071 157.300582-65.512063 169.600723-135.74566l1.667989-9.516748-9.601682 1.063215c-87.561241 9.692756-157.303652 65.513086-169.601746 135.746684L312.292586 418.534673zM709.555401 418.534673l-1.667989-9.514701c-12.298094-70.233598-82.038458-126.054951-169.600723-135.746684l-9.598612-1.063215 1.664919 9.516748c12.295024 70.233598 82.038458 126.053927 169.600723 135.74566L709.555401 418.534673zM510.917342 584.084127l5.245468-5.517667c54.166667-56.985876 54.166667-136.584772 0-193.573717l-5.245468-5.517667-5.252631 5.509481c-26.590612 27.89635-40.645722 61.364603-40.645722 96.791463 0.01228 35.444257 14.065344 68.916603 40.645722 96.797603L510.917342 584.084127z"  horiz-adv-x="1024" />

    
    <glyph glyph-name="wifiwofi" unicode="&#59143;" d="M512 56.8m-81.024 0a1.266 1.266 0 1 0 162.048 0 1.266 1.266 0 1 0-162.048 0ZM512 300C433.984 300 364.736 263.136 320.192 205.92l42.688-33.216C397.44 217.248 451.264 245.856 512 245.856s114.496-28.608 149.248-73.152l42.56 33.216C659.264 263.136 590.016 300 512 300zM512 624.224c-182.08 0-343.744-86.144-447.552-219.456l43.648-33.92C201.856 491.168 347.712 568.864 512 568.864c164.224 0 310.144-77.696 403.904-198.016l43.712 33.984C855.68 538.144 694.08 624.224 512 624.224zM512 462.112c-130.048 0-245.504-61.44-319.616-156.672l42.624-33.216C299.264 354.72 399.296 408.096 512 408.096s212.672-53.376 277.056-135.872l42.56 33.216C757.504 400.608 642.048 462.112 512 462.112z"  horiz-adv-x="1024" />

    
    <glyph glyph-name="dakuohao" unicode="&#59169;" d="M620.60544 391.31136c4.00384-4.00384 4.00384-10.48576 0-14.47936l0 0c-4.00384-3.9936-10.47552-3.9936-14.47936 0L403.39456 579.57376c-4.00384 4.00384-4.00384 10.48576 0 14.47936l0 0c3.9936 4.00384 10.47552 4.00384 14.47936 0L620.60544 391.31136zM403.39456 188.416c-4.00384-4.00384-4.00384-10.47552 0-14.47936l0 0c4.00384-4.00384 10.47552-4.00384 14.47936 0l202.74176 202.752c4.00384 4.00384 4.00384 10.48576 0 14.47936l0 0c-4.00384 4.00384-10.47552 4.00384-14.47936 0L403.39456 188.416z"  horiz-adv-x="1024" />

    
    <glyph glyph-name="xinhao" unicode="&#58888;" d="M724.061359 109.911632c-29.258359 0-52.981287 19.318666-52.981287 43.155928L671.080071 613.369481c0 23.827531 23.722928 43.151062 52.981287 43.151062 29.258359 0 52.980071-19.323532 52.980071-43.151062l0-460.301921C777.04143 129.230298 753.319718 109.911632 724.061359 109.911632L724.061359 109.911632zM512.142291 109.911632c-29.262008 0-52.980071 19.318666-52.980071 43.155928L459.16222 498.290656c0 23.832396 23.718063 43.154711 52.980071 43.154711 29.258359 0 52.976422-19.322315 52.976422-43.154711l0-345.223096C565.118713 129.230298 541.40065 109.911632 512.142291 109.911632L512.142291 109.911632zM300.219574 109.911632c-29.263224 0-52.981287 19.318666-52.981287 43.155928L247.238287 383.215479c0 23.832396 23.718063 43.155928 52.981287 43.155928 29.263224 0 52.981287-19.323532 52.981287-43.155928l0-230.14792C353.200862 129.230298 329.482799 109.911632 300.219574 109.911632L300.219574 109.911632zM88.301723 109.911632C59.038498 109.911632 35.320435 129.230298 35.320435 153.06756l0 115.07396c0 23.832396 23.718063 43.151062 52.981287 43.151062 29.257143 0 52.980071-19.318666 52.980071-43.151062l0-115.07396C141.281794 129.230298 117.558866 109.911632 88.301723 109.911632L88.301723 109.911632zM88.301723 109.911632M935.699459 109.911632c-29.258359 0-52.981287 19.318666-52.981287 43.155928L882.718171 728.919018c0 23.827531 23.722928 43.151062 52.981287 43.151062 29.258359 0 52.980071-19.323532 52.980071-43.151062l0-575.851458C988.67953 129.230298 964.957818 109.911632 935.699459 109.911632L935.699459 109.911632z"  horiz-adv-x="1024" />

    
    <glyph glyph-name="shangjia" unicode="&#58918;" d="M510.634667 890.538667c-279.210667 0-505.173333-225.962667-505.173333-505.173333s225.962667-505.173333 505.173333-505.173333 505.173333 225.962667 505.173333 505.173333S789.162667 890.538667 510.634667 890.538667zM236.202667 684.373333l548.181333 0c10.922667 0 19.114667-6.144 19.114667-17.066667s-8.874667-17.066667-19.114667-17.066667L236.202667 650.24c-10.922667 0-19.114667 6.144-19.114667 17.066667S225.962667 684.373333 236.202667 684.373333zM805.546667 111.616c0-12.288-12.288-27.989333-24.576-27.989333L239.616 83.626667c-12.288 0-21.162667 15.018667-21.162667 27.989333L218.453333 299.349333c0 12.288 11.605333 22.528 23.893333 22.528 12.288 0 23.893333-10.24 23.893333-22.528L266.24 124.586667l491.52 0L757.76 299.349333c0 12.288 11.605333 22.528 23.893333 22.528 12.288 0 23.893333-10.24 23.893333-22.528L805.546667 111.616zM765.269333 356.010667c-47.104 0-84.650667 38.229333-84.650667 84.650667 0-47.104-38.229333-84.650667-84.650667-84.650667s-84.650667 38.229333-84.650667 84.650667c0-47.104-38.229333-84.650667-84.650667-84.650667s-84.650667 38.229333-84.650667 85.333333c0-47.104-38.229333-84.650667-84.650667-84.650667S170.666667 395.605333 170.666667 442.709333c0 10.24 2.048 23.210667 5.461333 30.037333l0 0 0 0c0 0 0 0 0 0l0.682667-0.682667c0.682667 1.365333 1.365333 0.682667 2.048 2.048L229.376 588.8l561.834667 0 50.517333-113.322667c0.682667-2.048 2.048 0 2.730667-2.048l0.682667 0 0 0c3.413333-6.826667 5.461333-19.797333 5.461333-30.037333C849.92 395.605333 811.690667 356.010667 765.269333 356.010667z"  horiz-adv-x="1024" />

    
    <glyph glyph-name="jingyin" unicode="&#59126;" d="M512-8.533333h13.653333c25.6 3.413333 42.666667 23.893333 51.2 47.786666 3.413333 8.533333 6.826667 20.48 6.826667 30.72h-145.066667c1.706667-42.666667 34.133333-78.506667 73.386667-78.506666zM100.693333 554.666667l-29.013333 34.133333C27.306667 535.893333 0 464.213333 0 384s27.306667-151.893333 73.386667-204.8L102.4 213.333333c-37.546667 42.666667-61.44 104.106667-61.44 170.666667s22.186667 128 59.733333 170.666667z m40.96-47.786667c-27.306667-30.72-44.373333-75.093333-44.373333-122.88s17.066667-92.16 44.373333-122.88l29.013334 34.133333C150.186667 317.44 138.24 349.866667 138.24 384s11.946667 66.56 32.426667 88.746667l-29.013334 34.133333z m605.866667-63.146667c0 121.173333-75.093333 220.16-180.906667 247.466667v27.306667C566.613333 749.226667 541.013333 776.533333 512 776.533333c-29.013333 0-54.613333-27.306667-54.613333-59.733333v-27.306667c-51.2-13.653333-95.573333-44.373333-128-85.333333L819.2 114.346667v34.133333l-71.68 78.506667V443.733333zM950.613333 588.8L921.6 554.666667c37.546667-42.666667 61.44-104.106667 61.44-170.666667s-23.893333-128-61.44-170.666667l29.013333-34.133333c44.373333 52.906667 73.386667 124.586667 73.386667 204.8s-27.306667 151.893333-73.386667 204.8z m-68.266666-81.92l-29.013334-34.133333c20.48-22.186667 32.426667-54.613333 32.426667-88.746667s-11.946667-66.56-32.426667-88.746667l29.013334-34.133333c27.306667 30.72 44.373333 75.093333 44.373333 122.88s-17.066667 92.16-44.373333 122.88zM153.6 588.8l124.586667-124.586667c0-6.826667-1.706667-13.653333-1.706667-22.186666v-215.04L204.8 148.48v-39.253333h428.373333l124.586667-124.586667 47.786667 47.786667-604.16 604.16L153.6 588.8z"  horiz-adv-x="1024" />

    
    <glyph glyph-name="diannao" unicode="&#59134;" d="M511.667509 896c-282.509746 0-511.524282-229.014536-511.524282-511.524282s229.014536-511.524282 511.524282-511.524283 511.524282 229.014536 511.524283 511.524283-229.014536 511.524282-511.524283 511.524282z m196.7527-756.610912H323.298692a17.514591 17.514591 0 0 0 0 35.018953h124.49478l15.545223 23.340853a23.345968 23.345968 0 0 0 23.340853 23.340853h58.35469a23.345968 23.345968 0 0 0 23.345968-23.340853l15.545223-23.340853h124.49478a17.514591 17.514591 0 0 0 0-35.018953zM795.931783 326.131258c0-38.676351-31.341093-70.017444-70.017443-70.017444H305.789216c-38.676351 0-70.017444 31.346208-70.017444 70.017444V559.529558c0 38.676351 31.346208 70.022559 70.017444 70.022559h420.120008c38.676351 0 70.017444-31.346208 70.017444-70.022559v-233.3983z"  horiz-adv-x="1024" />

    
    <glyph glyph-name="dian" unicode="&#58891;" d="M43.588 368.385c0-62.33 50.525-112.884 112.884-112.884s112.884 50.525 112.884 112.884c0 62.33-50.525 112.884-112.884 112.884-62.33 0-112.884-50.525-112.884-112.884zM412.295 368.385c0-62.33 50.525-112.884 112.884-112.884 62.33 0 112.884 50.525 112.884 112.884 0 62.33-50.525 112.884-112.884 112.884-62.33 0-112.884-50.525-112.884-112.884zM781.025 368.385c0 0 0 0 0 0 0-62.33 50.525-112.884 112.884-112.884 62.33 0 112.884 50.525 112.884 112.884 0 0 0 0 0 0 0 0 0 0 0 0 0 62.33-50.525 112.884-112.884 112.884-62.33 0-112.884-50.525-112.884-112.884s0 0 0 0z"  horiz-adv-x="1024" />

    
    <glyph glyph-name="bolangneng" unicode="&#58910;" d="M513.833333 865.782667c-267.364 0-484.105333-216.74-484.105333-484.105334 0-267.362667 216.74-484.102667 484.105333-484.102666 267.362667 0 484.105333 216.74 484.105334 484.102666-0.001333 267.364-216.742667 484.105333-484.105334 484.105334z m0-924.921334c-243.456 0-440.816 197.36-440.816 440.816S270.377333 822.492 513.833333 822.492s440.816-197.36 440.816-440.816-197.361333-440.814667-440.816-440.814667zM128.452 419.834667s15.548 28.808 61.274667 31.094666c0 0 54.873333 5.944 104.716-73.621333 0 0 80.169333-119.869333 152.730666-32.466667 20.12 24.236 62.009333 93.317333 86.882667 114.776 46.642667 40.24 121.178667 62.189333 199.830667-64.933333 0 0 69.049333-117.52 167.821333-1.372 0 0 2.286667-30.637333-0.457333-55.788 0 0-85.968-113.862667-182.910667 11.889333 0 0-109.289333 190.228-222.237333-16.005333 0 0-95.570667-170.106667-225.437334 6.858667 0 0-33.838667 57.16-85.053333 56.245333 0 0-37.954667 1.829333-58.989333-33.381333 0 0.001333-3.658667 25.609333 1.829333 56.704zM893.02 463.733333c0.014667-0.062667-0.281333-0.350667-1.829333-3.048-51.214667-89.321333-112.033333-78.346667-168.278667 7.164-68.786667 104.578667-188.398667 99.229333-239.025333-1.372-36.056-71.649333-73.752-93.894667-106.677334-93.284-24.392 0.452-60.36 23.778667-114.014666 95.418667-55.482667 65.848-119.501333 26.217333-119.501334 26.217333s71.64 260.648 363.382667 273.146667c0.001333 0 309.121333 15.242667 385.944-304.242667zM890.393333 283.566667c0.017333 0.061333-0.069333-2.12-1.981333-4.573334-50.605333-64.933333-140.689333-36.125333-181.386667 22.864-70.294667 101.888-127.58 79.109333-184.282666-13.261333-31.668-51.589333-85.510667-84.596-129.866667-82.766667-42.052 1.734667-93.437333 28.656-136.725333 85.968-50.605333 74.384-126.665333 30.637333-126.665334 30.637334s42.984-318.265333 384.349334-332.338667c-0.001333 0 290.590667-12.601333 376.558666 293.470667z"  horiz-adv-x="1024" />

    
    <glyph glyph-name="scan-o" unicode="&#58883;" d="M96.96289062 481.65527344a24.40722656 24.40722656 0 0 1 24.41601563 24.41601562V774.62109375h268.54980469a24.41601563 24.41601563 0 1 1 0 48.83203125H96.96289062A24.40722656 24.40722656 0 0 1 72.546875 799.03710938v-292.96582032a24.40722656 24.40722656 0 0 1 24.41601563-24.41601562zM389.92871094-6.62109375H121.37890625V261.92871094a24.41601563 24.41601563 0 1 1-48.83203125 0v-292.96582031A24.40722656 24.40722656 0 0 1 96.96289062-55.453125h292.96582032a24.41601563 24.41601563 0 0 1 0 48.83203125zM927.03710938 823.453125H634.07128906a24.41601563 24.41601563 0 1 1 0-48.83203125h268.54980469v-268.54980469a24.41601563 24.41601563 0 1 1 48.83203125 0V799.03710938A24.3984375 24.3984375 0 0 1 927.03710938 823.453125zM927.03710938 286.34472656a24.3984375 24.3984375 0 0 1-24.41601563-24.41601562v-268.54980469H634.07128906a24.41601563 24.41601563 0 1 1 0-48.83203125h292.96582031a24.3984375 24.3984375 0 0 1 24.41601563 24.41601563V261.92871094a24.3984375 24.3984375 0 0 1-24.41601563 24.41601562zM927.03710938 408.41601563H96.96289062a24.41601563 24.41601563 0 0 1 1e-8-48.83203126h830.07421875a24.41601563 24.41601563 0 0 1 0 48.83203125z"  horiz-adv-x="1024" />

    
    <glyph glyph-name="wo" unicode="&#58974;" d="M763.12381 576.609524c0 141.409524-112.152381 256-251.12381 256S260.87619 718.019048 260.87619 576.609524c0-99.961905 58.514286-187.733333 141.409524-229.180953 2.438095-2.438095 2.438095-4.87619 0-7.314285-163.352381-48.761905-285.257143-202.361905-285.257143-385.219048 0-9.752381 17.066667-19.504762 26.819048-19.504762 9.752381 0 26.819048 9.752381 26.819048 21.942857 14.628571 204.8 141.409524 319.390476 329.142857 360.838096 12.190476 2.438095 26.819048 4.87619 41.447619 4.87619 126.780952 9.752381 221.866667 119.466667 221.866667 253.561905zM512 376.685714c-109.714286 0-199.92381 90.209524-199.92381 202.361905 0 112.152381 90.209524 202.361905 199.92381 202.361905 109.714286 0 199.92381-90.209524 199.92381-202.361905 0-112.152381-90.209524-202.361905-199.92381-202.361905z m197.485714-73.142857c-7.314286 4.87619-26.819048-2.438095-31.695238-12.190476-4.87619-9.752381-4.87619-26.819048 2.438095-31.695238 112.152381-65.828571 177.980952-175.542857 177.980953-304.761905 0-9.752381 14.628571-19.504762 24.380952-19.504762s26.819048 9.752381 26.819048 19.504762c0 143.847619-78.019048 277.942857-199.92381 348.647619z"  horiz-adv-x="1024" />

    
    <glyph glyph-name="shouye" unicode="&#58898;" d="M972.195453 743.348576a18.046204 18.046204 0 0 0-17.913512-18.576975H718.752441l-4.42309 7.519252-14.817349 16.36543-9.067332 13.269267h263.837271a18.046204 18.046204 0 0 0 17.913512-18.576974z m-272.683451 3.759626v1.548081-1.548081z m268.039207-249.019923h-1.326927q1.326927-1.326927 1.326927 0z m-30.961625 31.182779V742.685112a18.488513 18.488513 0 0 0 36.932795 0v-244.596833l-11.721186 7.519251-7.519252 5.971171-1.548081 2.875008a64.289602 64.289602 0 0 1-7.298097 8.846178 14.242347 14.242347 0 0 1-8.846179 5.971171zM438.549739-91.730668a17.692357 17.692357 0 1 0 0-35.384714H183.7798a17.006778 17.006778 0 0 0-12.605804 5.086552 17.227932 17.227932 0 0 0-5.307708 12.605805V361.857131a16.763508 16.763508 0 0 0 17.913512 17.692357 16.476007 16.476007 0 0 0 17.692357-17.692357v-471.280156l-17.692357 17.692357h254.769939z m272.68345-35.384714a17.692357 17.692357 0 0 0 0 35.384714h259.414182l-19.240438-17.692357V361.857131a18.488513 18.488513 0 0 0 36.932795 0v-471.280156a17.913511 17.913511 0 0 0-5.086552-12.605805 17.006778 17.006778 0 0 0-12.605805-5.086552H711.233189z m17.913511 17.692357a16.630815 16.630815 0 0 0-17.913511-17.692357 16.36543 16.36543 0 0 0-17.692357 17.692357V222.52982l17.692357-17.692356H438.549739l17.913511 17.692356v-331.952845a18.59909 18.59909 0 0 0-37.153949 0V222.52982a26.75969 26.75969 0 0 0 6.634633 12.605805 17.913511 17.913511 0 0 0 12.605805 5.086552h272.68345a17.692357 17.692357 0 0 0 17.913511-17.692357v-331.952845zM563.0597 889.31052a18.024089 18.024089 0 0 0 25.211609 0 14.574079 14.574079 0 0 0 5.97117-12.605804 15.126965 15.126965 0 0 0-5.97117-12.605805v-1.326926c-22.778909-20.788519-45.336664-41.577039-68.115574-62.365558L31.183222 348.366709a19.903901 19.903901 0 0 0-26.75969 0 22.447178 22.447178 0 0 0 0 26.759689h1.548081c21.673137 21.673137 44.452047 42.461656 68.115574 62.144404l432.79928 400.289574c18.576975 17.692357 37.375104 34.942405 56.173233 51.750144z m0-23.663527a13.910616 13.910616 0 0 0-5.97117 11.94234 18.400051 18.400051 0 0 0 5.97117 13.269268 18.024089 18.024089 0 0 0 25.211609 0l1.548081-1.548081c22.778909-19.682747 44.894356-40.471266 66.567493-62.144404l490.520594-452.039718a15.480812 15.480812 0 0 0 4.423089-11.94234 20.876981 20.876981 0 0 0-4.423089-13.269268 19.682747 19.682747 0 0 0-26.538536 0v1.548081c-23.884682 20.788519-46.442437 41.355884-68.336728 62.144404L617.906006 813.675694c-17.692357 16.807739-36.048177 34.278941-54.846306 51.971299z"  horiz-adv-x="1152" />

    
    <glyph glyph-name="shangpinfenlei" unicode="&#58884;" d="M511.489534 894.977023C228.943281 894.977023 0.001023 666.034765 0.001023 383.488511s228.942258-511.488511 511.488511-511.488511 511.488511 228.942258 511.488512 511.488511S794.035788 894.977023 511.489534 894.977023z m-12.684915-652.25015c0-70.585415-57.286713-127.872128-127.872127-127.872128s-127.872128 57.286713-127.872128 127.872128 57.286713 127.872128 127.872128 127.872128h127.872127v-127.872128z m0 153.446554h-127.872127c-70.585415 0-127.872128 57.286713-127.872128 127.872127s57.286713 127.872128 127.872128 127.872128 127.872128-57.286713 127.872127-127.872128v-127.872127z m153.446554-281.318682c-70.585415 0-127.872128 57.286713-127.872128 127.872128v127.872128h127.872128c70.585415 0 127.872128-57.286713 127.872128-127.872128s-57.286713-127.872128-127.872128-127.872128z m0 281.318682h-127.872128v127.872127c0 70.585415 57.286713 127.872128 127.872128 127.872128s127.872128-57.286713 127.872128-127.872128-57.286713-127.872128-127.872128-127.872127z"  horiz-adv-x="1024" />

    
    <glyph glyph-name="fangdajing" unicode="&#58897;" d="M936.378 12.595l0.132 0.288-247.992 249.094c48.824 59.145 76.898 132.65 79.2 207.522 4.591 91.188-30.124 185.383-92.828 251.912-53.56 58.066-128.875 97.096-206.551 107.118-15.08 2.11-30.52 3.164-45.9 3.164-76.874 0-151.794-25.676-210.938-72.235C142.946 706.954 95.621 628.15 81.655 543.28c-13.857-79.104 1.138-163.973 41.115-232.78 27.343-47.828 66.279-88.92 112.573-118.816 42.495-27.62 91.39-45.672 141.33-52.121 14.984-2.085 30.352-3.14 45.67-3.14 70.918 0 141.078 22.272 198.173 62.79l247.68-248.904 4.58-4.337 0.132 0.119c8.163-6.737 18.508-10.477 29.224-10.477 25.318 0 45.912 20.762 45.912 46.271-0.001 11.314-4.21 22.246-11.666 30.71m-251.383 339.74c-40.576-83.335-122.138-144.277-212.917-159.045-42.495-7.432-87.28-5.131-129.006 6.616-81.417 22.44-151.11 81.85-186.485 159.022-40.948 85.686-35.842 193.606 13.018 274.975 43.49 75.184 120.148 128 204.97 141.233l6.017 0.913c3.165 0.527 6.353 1.03 9.47 1.39a304.309 304.309 0 0 0 31.683 1.653c43.321 0 86.116-9.374 123.827-27.14 68.999-31.79 124.008-90.862 150.894-162.114 29.489-76.094 25.222-164.86-11.471-237.502"  horiz-adv-x="1024" />

    
    <glyph glyph-name="shangjia1" unicode="&#58919;" d="M999.227 488.178c0 2.199-0.303 4.393-1.021 6.48l-65.259 211.187v95.45c0 12.127-9.644 21.849-21.444 21.849H115.581c-11.903 0-21.443-9.825-21.443-21.849v-88.867c-0.309-0.627-0.513-1.355-0.719-1.984L25.905 495.705c-0.618-2.088-1.028-4.289-1.028-6.48l-0.411-49.557v-0.206c0-48.299 24.11-90.958 60.743-116.151-1.027-2.613-1.639-5.436-1.639-8.365v-349.389c0-12.129 9.643-21.852 21.445-21.852h810.898c11.897 0 21.446 9.828 21.446 21.852V239.676c0 18.438-42.89 19.602-42.89-0.252v-252.018H126.562v316.77c11.287-3.029 23.186-4.699 35.398-4.699 49.353 0 92.652 26.549 116.866 66.387 24.32-39.838 67.621-66.387 116.872-66.387 48.838 0 91.829 26.031 116.253 65.338 24.419-39.201 67.41-65.338 116.249-65.338 49.359 0 92.658 26.549 116.873 66.387 24.314-39.838 67.615-66.387 116.973-66.387 75.821 0 137.488 62.83 137.488 140.086v0.104l-0.307 48.511zM137.026 779.34h752.927v-53.736H137.026V779.34z m725.02-436.166c-52.125 0-94.604 43.178-94.604 96.389 0 12.128-9.649 21.855-21.445 21.855h-1.747c-11.899 0-21.445-9.833-21.445-21.855 0-53.107-42.375-96.389-94.604-96.389-52.225 0-94.498 43.282-94.498 96.389 0 12.128-9.646 21.855-21.442 21.855h-0.41c-11.904 0-21.445-9.833-21.445-21.855 0-53.107-42.381-96.389-94.605-96.389-52.125 0-94.604 43.178-94.604 96.389 0 12.128-9.645 21.855-21.446 21.855h-1.741c-11.903 0-21.444-9.833-21.444-21.855 0-53.107-42.381-96.389-94.605-96.389-52.126 0-94.502 43.178-94.604 96.288l0.409 46.103L129.435 681.9h765.853l60.945-197.277 0.208-45.06c0.102-53.211-42.275-96.389-94.395-96.389z m0 0"  horiz-adv-x="1024" />

    
    <glyph glyph-name="huo" unicode="&#58892;" d="M1120.017535 896c-282.77001 0-512-229.22999-512-512s229.22999-512 512-512 512 229.22999 512 512-229.22999 512-512 512z m289.000271-626.957575c-0.545479-1.786955-1.213781-3.566686-1.578638-5.392173-3.749716-19.385574-5.859383-39.273278-11.515264-58.090495-16.770165-55.513618-48.197217-101.779382-92.255778-139.553496-33.976232-29.153621-72.217556-50.161182-115.929323-60.502403-14.373911-3.40533-29.115088-5.412644-43.693704-8.070198h-36.657869c-1.783343 0.550296-3.608831 1.382362-5.43191 1.503981-38.708533 2.407091-75.386872 12.48942-109.795394 30.067568-65.042039 33.127308-111.958043 82.460036-133.387056 153.420462-4.56372 15.167445-6.465069 31.065807-9.629569 46.630621v34.996145c1.378749 8.601227 2.573264 17.273499 4.198863 25.86991 6.931074 37.548938 23.619358 70.79907 45.717876 101.496407 20.843797 28.893525 42.982053 56.873101 62.749342 86.497544 21.372418 32.130274 31.713639 67.799538 25.653164 106.907847-1.196923 7.725812-2.313168 15.451624-3.487212 23.136494 0.786308 0.199889 1.579842 0.361244 2.373375 0.585216 47.705925-49.995009 55.471473-111.374031 48.655997-177.691263 1.748422 1.865225 3.205441 3.1645 4.320482 4.661256 40.491876 54.764639 57.883381 115.262224 44.687126 183.025637-8.389297 43.104876-26.541824 81.856758-56.567247 114.068914-13.039716 13.950051-28.811643 25.362964-43.350523 37.954737h15.006089c1.233047-0.506946 2.391437-1.378749 3.644956-1.501573 26.400939-2.265002 51.197953-10.41949 74.820923-21.87816 54.026496-26.152884 97.824961-64.814455 134.459951-111.978513 53.851895-69.398646 88.86851-146.383422 95.801993-235.025553 2.658758-33.838959-0.793533-66.726642-9.810192-99.167586-3.408942-12.284715-8.212287-24.164837-12.614651-36.961314 17.477 7.442837 30.759954 18.816012 41.018088 33.555985 30.598598 44.058561 39.152863 93.186584 32.216972 147.498463 2.254165-2.610592 3.408942-3.647363 4.195251-4.940619 18.431889-29.117496 32.220585-60.179691 39.41898-93.935564 2.859851-13.361223 4.516758-27.033116 6.766106-40.511141v-36.677136zM1129.877097 274.061313c-5.304271 6.953953-12.000536 12.856685-18.039337 19.253118-0.506946-0.358836-1.063262-0.732122-1.583454-1.092162-0.703222-9.863174-1.227027-19.74441-2.18312-29.605176-1.404036-15.051847-5.005642-29.565439-12.046294-43.062731-8.609656-16.53054-22.999222-26.810349-38.950566-34.987716-17.200046-8.875773-28.033763-21.554244-29.440208-41.564772-1.464244-20.57768 4.722667-37.866833 21.313415-50.516405 15.544343-11.835568 33.701687-15.694861 52.948783-15.050642 30.731054 1.001851 53.625515 15.606959 62.805937 46.364504 6.589096 22.072028 5.514997 44.298186 1.105408 66.520732-6.024351 30.463733-17.054344 58.858741-35.930564 83.74125z"  horiz-adv-x="2331" />

    
    <glyph glyph-name="iconset0249" unicode="&#58634;" d="M128 213.33333300000004l213.333333 0L341.333333 554.666667 128 554.666667 128 213.33333300000004zM938.666667 469.333333l0 85.333333c0 46.933333-38.4 85.333333-85.333333 85.333333L128 640c-46.933333 0-85.333333-38.4-85.333333-85.333333l0-341.333333c0-46.933333 38.4-85.333333 85.333333-85.333333l725.333333 0c46.933333 0 85.333333 38.4 85.333333 85.333333l0 85.333333c23.466667 0 42.666667 19.2 42.666667 42.666667l0 85.333333C981.333333 450.133333 962.133333 469.333333 938.666667 469.333333zM896 213.33333300000004c0-23.466667-19.2-42.666667-42.666667-42.666667L128 170.66666699999996c-23.466667 0-42.666667 19.2-42.666667 42.666667L85.333333 554.666667c0 23.466667 19.2 42.666667 42.666667 42.666667l725.333333 0c23.466667 0 42.666667-19.2 42.666667-42.666667L896 213.33333300000004z"  horiz-adv-x="1024" />

    
    <glyph glyph-name="web-cjiagongmaoyi" unicode="&#59200;" d="M695.415467 215.1936a14.5408 14.5408 0 0 1-10.325334-4.266667 14.626133 14.626133 0 1 1 10.325334 4.266667zM512 860.450133c-263.150933 0-476.450133-213.2992-476.450133-476.450133 0-263.133867 213.2992-476.433067 476.450133-476.433067 263.133867 0 476.433067 213.2992 476.433067 476.433067 0.017067 263.150933-213.2992 476.450133-476.433067 476.450133z m120.200533-293.6832c-3.106133 3.089067-4.283733 7.4752-3.1744 11.707734s4.317867 7.441067 8.5504 8.584533l121.685334 33.0752a11.9296 11.9296 0 0 0 11.707733-3.089067 11.946667 11.946667 0 0 0 3.191467-11.6736l-32.2048-121.9584a12.168533 12.168533 0 0 0-20.258134-5.495466l-26.6752 26.487466-87.995733-88.0128-40.584533 35.3792 90.453333 90.504534-24.695467 24.490666z m-154.146133-324.829866l-122.1632-122.180267a25.685333 25.685333 0 0 0-36.215467 0l-49.117866 49.169067a25.378133 25.378133 0 0 0-7.492267 18.1248c0 6.826667 2.6624 13.243733 7.509333 18.090666l125.883734 125.917867c9.659733 9.659733 26.5216 9.659733 36.1984 0l0.341333-0.3584 45.4144-52.872533c4.5056-4.488533 7.168-10.922667 7.168-17.7664s-2.679467-13.294933-7.5264-18.1248z m281.463467-105.403734c-17.1008-17.1008-39.867733-26.538667-64.085334-26.538666s-47.086933 9.557333-64.4096 26.897066l-194.696533 223.505067a277.9648 277.9648 0 0 0-52.002133-5.188267c-43.1104 0-77.789867 11.861333-100.2496 34.304a157.098667 157.098667 0 0 0-43.042134 141.8752 13.6704 13.6704 0 0 0 9.557334 10.530134 13.738667 13.738667 0 0 0 13.7216-3.447467l63.249066-63.214933 57.207467-11.844267 47.872 47.854933-11.844267 57.224534-63.232 63.249066a13.806933 13.806933 0 0 0 7.048534 23.278934 157.2352 157.2352 0 0 0 141.8752-43.0592c43.537067-43.502933 35.584-118.340267 29.115733-152.2176l223.914667-195.054934a90.760533 90.760533 0 0 0 0-128.1536z"  horiz-adv-x="1024" />

    
    <glyph glyph-name="mianliao_mianliao" unicode="&#59791;" d="M537.6 460.8h51.2v-51.2h-51.2zM537.6 345.6h51.2v-44.8h-51.2zM512 838.4C262.4 838.4 57.6 633.6 57.6 384s204.8-454.4 454.4-454.4 454.4 204.8 454.4 454.4S761.6 838.4 512 838.4z m281.6-704c0-19.2-12.8-32-32-32H262.4c-19.2 0-32 12.8-32 32V627.2c0 19.2 12.8 32 32 32h499.2c19.2 0 32-12.8 32-32v-492.8zM428.8 460.8h44.8v-51.2h-44.8zM294.4 166.4h435.2V595.2H294.4v-428.8z m57.6 179.2c-19.2 0-32 12.8-32 32s12.8 32 32 32h19.2v51.2h-19.2c-19.2 0-32 12.8-32 32s12.8 32 32 32h19.2v19.2c-6.4 19.2 12.8 32 25.6 32s32-12.8 32-32v-19.2h44.8v19.2c0 19.2 12.8 32 32 32s32-12.8 32-32v-19.2h51.2v19.2c0 19.2 12.8 32 32 32s32-12.8 32-32v-19.2h25.6c19.2 0 32-12.8 32-32s-12.8-32-32-32h-25.6v-51.2h25.6c19.2 0 32-12.8 32-32s-12.8-32-32-32h-25.6v-44.8h25.6c19.2 0 32-12.8 32-32s-12.8-32-32-32h-25.6v-19.2c0-19.2-12.8-32-32-32s-32 12.8-32 32v19.2h-51.2v-19.2c0-19.2-12.8-32-32-32s-32 12.8-32 32v19.2h-44.8v-19.2c0-19.2-12.8-32-32-32s-32 12.8-32 32v19.2h-12.8c-19.2 0-32 12.8-32 32s12.8 32 32 32h19.2v44.8h-19.2zM428.8 345.6h44.8v-44.8h-44.8z"  horiz-adv-x="1024" />

    
    <glyph glyph-name="dz-dingwei" unicode="&#58893;" d="M512 0.7314290000000483l22.820571 28.672c12.288 15.213714 299.008 375.076571 299.008 544.768a321.828571 321.828571 0 0 1-643.657142 0c0-169.691429 286.72-529.554286 299.008-544.768z m0 836.754285a263.314286 263.314286 0 0 0 263.314286-263.314285c0-113.517714-175.542857-361.618286-263.314286-479.232-90.112 117.028571-263.314286 365.714286-263.314286 479.232A263.314286 263.314286 0 0 0 512 837.485714zM658.285714 584.704a146.285714 146.285714 0 1 1-146.285714-146.285714 146.285714 146.285714 0 0 1 146.285714 146.285714z m-234.057143 0a87.771429 87.771429 0 1 0 87.771429-87.771429 87.771429 87.771429 0 0 0-87.771429 87.771429zM816.859429 222.50057100000004a29.257143 29.257143 0 0 1-25.161143-52.662857c58.514286-26.916571 90.112-58.514286 90.112-93.037714 0-69.046857-152.137143-146.285714-370.395429-146.285714S141.604571 7.753143000000023 141.604571 76.79999999999995c0 32.182857 32.768 66.121143 90.112 93.037714a29.257143 29.257143 0 1 1-25.161142 52.662857C126.976 185.05142899999998 83.090286 135.31428600000004 83.090286 76.79999999999995c0-117.028571 184.32-204.8 428.909714-204.8s428.909714 87.771429 428.909714 204.8c0 58.514286-43.885714 108.251429-124.050285 145.700571z"  horiz-adv-x="1024" />

    
    <glyph glyph-name="icon-test" unicode="&#58643;" d="M507.8 830.2C260.8 830.2 60.6 630 60.6 383s200.2-447.2 447.2-447.2S955 136 955 383 754.8 830.2 507.8 830.2z m-5.8-362h-23.9c8.5 0 15.5-8.1 15.5-18 0-8.5-5.1-15.7-12-17.5l-31.3-16.1v-6.3h27.8c8.5 0 15.5-8.1 15.5-18 0-8.5-5.1-15.7-12-17.5l-31.3-16.1v-6.3h27.8c8.5 0 15.5-8.1 15.5-18 0-8.5-5.1-15.7-12-17.5l-43.5-22.4h40c8.5 0 15.5-8.1 15.5-18 0-8.5-5.1-15.7-12-17.5l-43.5-22.4h40c8.5 0 15.5-8.1 15.5-18s-6.9-18-15.5-18H502v-9.4l-27.7-16.8h-23.9v-29.2c9.9-8.2 16.3-20.7 16.3-34.6 0-24.8-20.1-44.9-44.9-44.9-24.8 0-44.9 20.1-44.9 44.9 0 13.9 6.3 26.4 16.3 34.6v29.2h-23.9l-27.7 16.8v9.4h23c-8.5 0-15.5 8.1-15.5 18 0 8.4 4.9 15.4 11.6 17.4l43.7 22.5h-39.9c-8.5 0-15.5 8.1-15.5 18 0 8.4 4.9 15.4 11.6 17.4l32.8 16.9c-0.2 0.7-0.3 1.4-0.3 2.1v3.5h-28.7c-8.5 0-15.5 8.1-15.5 18 0 8.4 4.9 15.4 11.6 17.4l32.6 16.8v5.8h-28.7c-8.5 0-15.5 8.1-15.5 18 0 8.4 4.9 15.4 11.6 17.4l32.6 16.8v5.8h-28.7c-8.5 0-15.5 8.1-15.5 18s6.9 18 15.5 18h-23v9.4l27.7 16.8h4v59.9l-7.5 5.8v15.9h10V599c0 25.4 20.6 46.1 46.1 46.1 25.4 0 46.1-20.6 46.1-46.1v-22.8h10v-15.9l-7.5-5.8v-59.9h4l27.7-16.8v-9.6z m186 41.9h-23.9c8.5 0 15.5-8.1 15.5-18 0-8.5-5.1-15.7-12-17.5l-43.5-22.4h40c8.5 0 15.5-8.1 15.5-18 0-8.5-5.1-15.7-12-17.5l-31.7-16.3c0.3-0.8 0.4-1.7 0.4-2.6v-3.5h27.8c8.5 0 15.5-8.1 15.5-18 0-8.5-5.1-15.7-12-17.5l-31.3-16.1v-6.3h27.8c8.5 0 15.5-8.1 15.5-18 0-8.5-5.1-15.7-12-17.5l-31.3-16.1v-6.3h27.8c8.5 0 15.5-8.1 15.5-18s-6.9-18-15.5-18H688v-9.4l-27.7-16.8h-4v-59.9l7.5-5.8v-15.9h-10v-22.8c0-25.4-20.6-46.1-46.1-46.1s-46.1 20.6-46.1 46.1v22.8h-10v15.9l7.5 5.8v59.9h-4l-27.7 16.8v9.4h23c-8.5 0-15.5 8.1-15.5 18 0 8.4 4.9 15.4 11.6 17.4l32.6 16.8v5.8h-28.7c-8.5 0-15.5 8.1-15.5 18 0 8.4 4.9 15.4 11.6 17.4l32.6 16.8v5.8h-28.7c-8.5 0-15.5 8.1-15.5 18 0 8.4 4.9 15.4 11.6 17.4l43.8 22.5h-39.9c-8.5 0-15.5 8.1-15.5 18 0 8.4 4.9 15.4 11.6 17.4l43.8 22.5h-39.9c-8.5 0-15.5 8.1-15.5 18s6.9 18 15.5 18h-23v9.4l27.7 16.8H579v29.2c-9.9 8.2-16.3 20.7-16.3 34.6 0 24.8 20.1 44.9 44.9 44.9 24.8 0 44.9-20.1 44.9-44.9 0-13.9-6.3-26.4-16.3-34.6v-29.2h23.9l27.7-16.8v-9.6zM421.7 576.1c14.1 0 25.6 11.4 25.6 25.6 0 14.1-11.4 25.6-25.6 25.6-14.1 0-25.6-11.4-25.6-25.6 0-14.2 11.5-25.6 25.6-25.6zM599.59635 580.419927a21.2 21.2 0 1 1 16.225778 39.172492 21.2 21.2 0 1 1-16.225778-39.172492ZM421.7 110.5m-21.2 0a21.2 21.2 0 1 1 42.4 0 21.2 21.2 0 1 1-42.4 0ZM582.458613 104.701177a25.6 25.6 0 1 1 50.539518 8.197384 25.6 25.6 0 1 1-50.539518-8.197384Z"  horiz-adv-x="1024" />

    
    <glyph glyph-name="icon-test1" unicode="&#58646;" d="M507.8 830.2C260.8 830.2 60.6 630 60.6 383s200.2-447.2 447.2-447.2S955 136 955 383 754.8 830.2 507.8 830.2z m180.7-405.1v-14.5h-9v-15.3h0.6c2.2 0 4-1.8 4-4v-45.4c0-2.2-1.8-4-4-4h-6.3c-0.6-24.5-3.3-53.6-13.1-73.3-18.6-37.2-56.5-42.7-93.1-48.1-33.9-5-66.4-9.7-86.3-38v-22.8c0-37.1-30.2-67.3-67.3-67.3h-88.7c-37.1 0-67.3 30.2-67.3 67.3V470.3c0 37.1 30.2 67.3 67.3 67.3H414c37.1 0 67.3-30.2 67.3-67.3v-255.7c24.5 19.4 55.9 24 83.1 28 33.8 4.9 63.1 9.2 76.5 36.1 8.2 16.5 10.3 44.5 10.8 63.4h-8.1c-2.2 0-4 1.8-4 4v45.4c0 2.2 1.8 4 4 4h0.6v15.3h-9v14.5c-44.7 11.8-77.7 52.5-77.7 100.9 0 57.6 46.7 104.4 104.4 104.4 57.6 0 104.4-46.7 104.4-104.4-0.1-48.6-33-89.3-77.8-101.1z"  horiz-adv-x="1024" />

    


  </font>
</defs>
</svg>
